<svg width="1280" height="820" viewBox="0 0 1280 820" fill="none" xmlns="http://www.w3.org/2000/svg">
  <rect width="1280" height="820" rx="28" fill="#0B1220"/>
  <rect x="18" y="18" width="1244" height="784" rx="22" fill="#111A2D" stroke="#24324F"/>
  <rect x="44" y="44" width="1192" height="62" rx="12" fill="#0E1728" stroke="#273752"/>
  <circle cx="80" cy="75" r="7" fill="#EF4444"/>
  <circle cx="105" cy="75" r="7" fill="#F59E0B"/>
  <circle cx="130" cy="75" r="7" fill="#10B981"/>
  <rect x="168" y="63" width="214" height="24" rx="8" fill="#1E2A44"/>
  <rect x="1065" y="59" width="145" height="32" rx="10" fill="#2563EB"/>
  <rect x="44" y="126" width="272" height="650" rx="16" fill="#0E1728" stroke="#26354F"/>
  <rect x="66" y="154" width="228" height="14" rx="6" fill="#334969"/>
  <rect x="66" y="184" width="192" height="10" rx="5" fill="#253752"/>
  <rect x="66" y="212" width="210" height="10" rx="5" fill="#253752"/>
  <rect x="66" y="240" width="176" height="10" rx="5" fill="#253752"/>
  <rect x="66" y="268" width="206" height="10" rx="5" fill="#253752"/>
  <rect x="340" y="126" width="896" height="300" rx="16" fill="#0E1728" stroke="#26354F"/>
  <rect x="366" y="154" width="310" height="18" rx="7" fill="#2A3C5B"/>
  <rect x="366" y="186" width="196" height="10" rx="5" fill="#23354F"/>
  <rect x="366" y="228" width="840" height="168" rx="12" fill="#0A1324" stroke="#22324B"/>
  <rect x="388" y="250" width="118" height="124" rx="10" fill="#1D4ED8" fill-opacity="0.18"/>
  <rect x="522" y="250" width="118" height="124" rx="10" fill="#7C3AED" fill-opacity="0.2"/>
  <rect x="656" y="250" width="118" height="124" rx="10" fill="#0EA5E9" fill-opacity="0.18"/>
  <rect x="790" y="250" width="118" height="124" rx="10" fill="#10B981" fill-opacity="0.18"/>
  <rect x="924" y="250" width="258" height="124" rx="10" fill="#0F172A" stroke="#2A3C5B"/>
  <rect x="946" y="274" width="210" height="9" rx="4.5" fill="#334969"/>
  <rect x="946" y="294" width="180" height="9" rx="4.5" fill="#2B3D59"/>
  <rect x="946" y="314" width="198" height="9" rx="4.5" fill="#2B3D59"/>
  <rect x="946" y="334" width="166" height="9" rx="4.5" fill="#2B3D59"/>
  <rect x="340" y="444" width="432" height="332" rx="16" fill="#0E1728" stroke="#26354F"/>
  <rect x="798" y="444" width="438" height="332" rx="16" fill="#0E1728" stroke="#26354F"/>
  <rect x="366" y="472" width="256" height="14" rx="6" fill="#334969"/>
  <rect x="824" y="472" width="210" height="14" rx="6" fill="#334969"/>
  <rect x="366" y="506" width="380" height="246" rx="12" fill="#0A1324" stroke="#22324B"/>
  <path d="M386 722C430 690 448 628 484 615C520 602 550 646 582 637C614 628 632 560 670 552C708 544 726 584 746 562" stroke="#10B981" stroke-width="4" stroke-linecap="round"/>
  <circle cx="484" cy="615" r="6" fill="#10B981"/>
  <circle cx="582" cy="637" r="6" fill="#10B981"/>
  <circle cx="670" cy="552" r="6" fill="#10B981"/>
  <rect x="824" y="506" width="386" height="246" rx="12" fill="#0A1324" stroke="#22324B"/>
  <rect x="848" y="530" width="338" height="12" rx="6" fill="#2D3F5D"/>
  <rect x="848" y="558" width="294" height="12" rx="6" fill="#273954"/>
  <rect x="848" y="586" width="326" height="12" rx="6" fill="#273954"/>
  <rect x="848" y="614" width="280" height="12" rx="6" fill="#273954"/>
  <rect x="848" y="642" width="312" height="12" rx="6" fill="#273954"/>
  <rect x="848" y="680" width="182" height="42" rx="10" fill="#2563EB"/>
</svg>
